name processed_emg_signals						
nRows=116						
nColumns=7						
 						
endheader						
time	LGLTMED	LRF	LADDLONG	LST	LTA	LGM
1.35	0.017257425	0.022713757	0.028560801	0.021636839	0.529368563	0.050482702
1.351	0.017273031	0.022767495	0.028487966	0.021222627	0.525270009	0.050356161
1.352	0.017290241	0.022824021	0.028418569	0.020795719	0.521123797	0.050220082
1.353	0.01730907	0.022883285	0.028352742	0.020356331	0.516934398	0.050074853
1.354	0.017329536	0.022945233	0.02829062	0.019904707	0.512706212	0.049920863
1.355	0.017351655	0.023009809	0.028232333	0.01944112	0.508443561	0.049758499
1.356	0.017375445	0.023076953	0.02817801	0.018965873	0.504150683	0.04958815
1.357	0.017400923	0.023146604	0.028127778	0.018479299	0.499831722	0.049410202
1.358	0.017428105	0.023218695	0.028081763	0.017981763	0.495490725	0.049225039
1.359	0.017457008	0.023293158	0.028040087	0.017473657	0.491131635	0.049033042
1.36	0.017487649	0.023369924	0.02800287	0.016955409	0.486758284	0.04883459
1.361	0.017520044	0.023448918	0.027970228	0.016427475	0.482374389	0.048630056
1.362	0.017554208	0.023530065	0.027942275	0.015890345	0.477983544	0.04841981
1.363	0.017590157	0.023613285	0.027919121	0.015344539	0.473589222	0.048204214
1.364	0.017627907	0.023698498	0.027900872	0.01479061	0.469194761	0.047983626
1.365	0.017667472	0.023785621	0.027887631	0.014229145	0.464803368	0.047758398
1.366	0.017708866	0.023874567	0.027879496	0.013660762	0.460418113	0.047528873
1.367	0.017752102	0.023965249	0.027876562	0.013086112	0.456041923	0.047295388
1.368	0.017797195	0.024057578	0.027878918	0.012505878	0.451677584	0.047058271
1.369	0.017844155	0.024151462	0.02788665	0.011920779	0.447327734	0.046817841
1.37	0.017892995	0.024246806	0.027899838	0.011331562	0.442994864	0.046574411
1.371	0.017943726	0.024343517	0.027918557	0.010739011	0.438681316	0.046328281
1.372	0.017996356	0.024441496	0.027942877	0.01014394	0.434389281	0.046079744
1.373	0.018050895	0.024540646	0.027972865	0.009547197	0.430120799	0.045829082
1.374	0.01810735	0.024640867	0.028008579	0.008949661	0.425877756	0.045576567
1.375	0.018165728	0.024742057	0.028050074	0.008352245	0.42166189	0.045322459
1.376	0.018226034	0.024844114	0.028097399	0.007755891	0.417474784	0.04506701
1.377	0.018288272	0.024946934	0.028150596	0.007161575	0.413317871	0.04481046
1.378	0.018352445	0.025050412	0.028209702	0.006570303	0.409192437	0.044553036
1.379	0.018418553	0.025154444	0.028274749	0.005983113	0.405099615	0.044294957
1.38	0.018486595	0.025258922	0.028345761	0.00540107	0.401040397	0.044036428
1.381	0.018556571	0.025363739	0.028422759	0.004825271	0.397015627	0.043777643
1.382	0.018628474	0.025468787	0.028505754	0.004256843	0.393026007	0.043518787
1.383	0.0187023	0.025573957	0.028594755	0.00369694	0.389072102	0.043260031
1.384	0.018778039	0.025679141	0.02868976	0.003146743	0.38515434	0.043001534
1.385	0.018855683	0.025784229	0.028790765	0.002607462	0.381273016	0.042743446
1.386	0.018935219	0.02588911	0.028897758	0.002080332	0.377428294	0.042485904
1.387	0.019016631	0.025993674	0.02901072	0.001566614	0.373620215	0.042229034
1.388	0.019099903	0.026097812	0.029129627	0.001067592	0.369848697	0.041972951
1.389	0.019185016	0.026201411	0.029254448	0.000584575	0.36611354	0.041717759
1.39	0.019271947	0.026304361	0.029385146	0.000118894	0.362414431	0.041463551
1.391	0.019360671	0.026406552	0.029521677	0.000328097	0.358750947	0.041210411
1.392	0.019451161	0.026507872	0.029663992	0.000755026	0.355122561	0.04095841
1.393	0.019543387	0.02660821	0.029812034	0.001160502	0.351528648	0.04070761
1.394	0.019637314	0.026707457	0.029965742	0.001543113	0.347968485	0.040458064
1.395	0.019732906	0.026805501	0.030125047	0.001901434	0.34444126	0.040209814
1.396	0.019830123	0.026902233	0.030289875	0.002234023	0.340946074	0.039962894
1.397	0.019928923	0.026997543	0.030460146	0.002539422	0.33748195	0.039717328
1.398	0.020029259	0.027091322	0.030635773	0.002816165	0.334047834	0.039473133
1.399	0.020131081	0.027183461	0.030816667	0.003062771	0.330642599	0.039230315
1.4	0.020234337	0.027273853	0.031002728	0.003277752	0.327265057	0.038988876
1.401	0.020338969	0.027362391	0.031193854	0.00345961	0.323913955	0.038748807
1.402	0.020444918	0.027448967	0.031389937	0.003606843	0.320587987	0.038510094
1.403	0.020552119	0.027533478	0.031590864	0.003717942	0.317285796	0.038272716
1.404	0.020660505	0.027615818	0.031796515	0.003791397	0.314005979	0.038036645
1.405	0.020770006	0.027695885	0.032006768	0.003825695	0.310747094	0.037801849
1.406	0.020880545	0.027773576	0.032221495	0.003819326	0.307507663	0.037568289
1.407	0.020992045	0.027848792	0.032440563	0.003770779	0.304286178	0.037335923
1.408	0.021104422	0.027921432	0.032663835	0.00367855	0.301081107	0.037104701
1.409	0.021217591	0.027991401	0.03289117	0.003541141	0.297890896	0.036874574
1.41	0.021331461	0.028058602	0.033122423	0.003357061	0.294713978	0.036645485
1.411	0.021445939	0.028122941	0.033357444	0.003124829	0.291548774	0.036417377
1.412	0.021560927	0.028184328	0.033596081	0.002842976	0.288393703	0.036190189
1.413	0.021676323	0.028242673	0.033838179	0.002510049	0.28524718	0.035963858
1.414	0.021792022	0.028297889	0.034083579	0.002124608	0.282107627	0.03573832
1.415	0.021907916	0.028349891	0.034332118	0.001685233	0.278973474	0.035513509
1.416	0.022023891	0.028398597	0.034583632	0.001190525	0.275843165	0.035289357
1.417	0.022139833	0.02844393	0.034837954	0.000639104	0.272715161	0.035065799
1.418	0.02225562	0.028485812	0.035094914	2.96E-05	0.269587949	0.034842767
1.419	0.02237113	0.028524172	0.035354342	0.000639261	0.266460039	0.034620194
1.42	0.022486237	0.02855894	0.035616063	0.00136883	0.263329976	0.034398014
1.421	0.022600809	0.028590049	0.035879904	0.002160358	0.260196337	0.034176163
1.422	0.022714714	0.028617438	0.036145688	0.00301508	0.25705774	0.033954578
1.423	0.022827816	0.028641049	0.036413239	0.003934195	0.253912848	0.033733197
1.424	0.022939975	0.028660827	0.036682378	0.004918865	0.25076037	0.033511962
1.425	0.023051048	0.028676722	0.036952926	0.005970214	0.247599066	0.033290816
1.426	0.023160891	0.028688688	0.037224705	0.007089325	0.244427753	0.033069707
1.427	0.023269355	0.028696684	0.037497536	0.008277235	0.241245303	0.032848584
1.428	0.023376291	0.028700674	0.037771239	0.009534937	0.238050655	0.0326274
1.429	0.023481544	0.028700626	0.038045636	0.010863376	0.23484281	0.032406115
1.43	0.02358496	0.028696513	0.038320549	0.012263448	0.23162084	0.032184689
1.431	0.023686381	0.028688313	0.0385958	0.013735997	0.228383889	0.031963088
1.432	0.023785649	0.02867601	0.038871213	0.015281813	0.225131176	0.031741285
1.433	0.023882602	0.028659592	0.039146613	0.016901631	0.221861999	0.031519254
1.434	0.023977078	0.028639053	0.039421826	0.018596127	0.218575737	0.031296977
1.435	0.024068914	0.028614394	0.039696681	0.02036592	0.215271853	0.031074441
1.436	0.024157943	0.028585619	0.039971007	0.022211565	0.211949898	0.030851638
1.437	0.024244	0.02855274	0.040244637	0.024133556	0.20860951	0.030628566
1.438	0.024326918	0.028515773	0.040517404	0.026132323	0.205250421	0.030405229
1.439	0.02440653	0.028474741	0.040789147	0.028208228	0.201872456	0.030181636
1.44	0.024482668	0.028429673	0.041059704	0.030361564	0.198475534	0.029957806
1.441	0.024555165	0.028380604	0.041328918	0.032592558	0.195059674	0.02973376
1.442	0.024623852	0.028327573	0.041596635	0.034901363	0.191624994	0.029509528
1.443	0.024688564	0.028270628	0.041862704	0.037288061	0.188171715	0.029285145
1.444	0.024749132	0.028209821	0.042126978	0.039752659	0.184700157	0.029060655
1.445	0.024805393	0.02814521	0.042389311	0.042295092	0.181210747	0.028836107
1.446	0.02485718	0.028076861	0.042649563	0.044915215	0.177704018	0.028611556
1.447	0.024904332	0.028004844	0.042907598	0.047612808	0.174180608	0.028387067
1.448	0.024946687	0.027929236	0.043163283	0.050387573	0.170641264	0.028162707
1.449	0.024984086	0.027850119	0.043416488	0.053239131	0.167086839	0.027938555
1.45	0.02501637	0.027767582	0.04366709	0.056167025	0.163518299	0.027714693
1.451	0.025043386	0.02768172	0.043914966	0.059170716	0.159936715	0.027491211
1.452	0.025064982	0.027592632	0.044160001	0.062249585	0.156343274	0.027268206
1.453	0.025081009	0.027500425	0.044402081	0.065402929	0.152739268	0.02704578
1.454	0.02509132	0.02740521	0.0446411	0.068629964	0.149126103	0.026824045
1.455	0.025095774	0.027307105	0.044876952	0.071929824	0.145505294	0.026603115
1.456	0.025094234	0.027206231	0.045109537	0.07530156	0.141878469	0.026383114
1.457	0.025086564	0.027102718	0.04533876	0.078744139	0.138247363	0.02616417
1.458	0.025072635	0.026996697	0.045564529	0.082256446	0.134613826	0.025946417
1.459	0.025052323	0.026888309	0.045786757	0.085837285	0.130979812	0.025729997
1.46	0.025025508	0.026777696	0.046005359	0.089485375	0.127347389	0.025515056
1.461	0.024992076	0.026665006	0.046220257	0.093199354	0.12371873	0.025301746
1.462	0.024951918	0.026550392	0.046431375	0.09697778	0.120096119	0.025090224
1.463	0.024904931	0.026434013	0.046638639	0.100819129	0.116481943	0.024880653
1.464	0.024851019	0.026316031	0.046841983	0.104721796	0.112878697	0.0246732
1.465	0.024790093	0.026196611	0.047041341	0.1086841	0.10928898	0.024468037
